<svg width="48" height="48" viewBox="0 0 48 48" fill="none" xmlns="http://www.w3.org/2000/svg">
<path d="M23.5684 0C24.1343 0.0629928 43.9411 11.7836 45.71 12.8193L45.7168 25.5195C41.8829 27.7442 38.0722 30.009 34.2852 32.3125C38.0078 34.4065 41.9387 36.8327 45.6387 39.0098C45.6029 40.5963 45.6342 42.2577 45.6426 43.8506L39.0332 47.6074L12.4004 31.4541L12.3945 47.9395C9.00482 45.797 5.42753 43.7953 2 41.6504V12.4219L23.5684 0ZM23.7559 12.9141C20.0503 15.1152 16.0915 17.3816 12.4512 19.6494L23.3711 26.1836L34.4561 19.4688C33.1103 18.6111 24.7626 13.1707 23.7559 12.9141Z" fill="#0A45C3"/>
</svg>
