<svg width="800" height="400" viewBox="0 0 800 400" fill="none" xmlns="http://www.w3.org/2000/svg">
  <rect width="800" height="400" fill="url(#gradient3)"/>
  
  <!-- Browser mockup -->
  <rect x="80" y="50" width="640" height="300" rx="12" fill="white" fill-opacity="0.95"/>
  
  <!-- Browser header -->
  <rect x="80" y="50" width="640" height="36" rx="12" fill="#f5f5f5"/>
  <circle cx="102" cy="68" r="6" fill="#ff5f57"/>
  <circle cx="122" cy="68" r="6" fill="#febc2e"/>
  <circle cx="142" cy="68" r="6" fill="#28c840"/>
  <rect x="200" y="60" width="400" height="16" rx="8" fill="#e8e8e8"/>
  
  <!-- Search bar -->
  <rect x="110" y="105" width="580" height="40" rx="10" fill="#f8f9fb"/>
  <rect x="130" y="118" width="120" height="14" rx="4" fill="#ddd"/>
  <rect x="620" y="113" width="50" height="24" rx="6" fill="#0a45c3"/>
  
  <!-- Filters -->
  <rect x="110" y="160" width="80" height="28" rx="6" fill="#f0f4ff"/>
  <rect x="200" y="160" width="80" height="28" rx="6" fill="#fafafa"/>
  <rect x="290" y="160" width="80" height="28" rx="6" fill="#fafafa"/>
  
  <!-- Product grid -->
  <rect x="110" y="205" width="130" height="120" rx="12" fill="#fafafa"/>
  <rect x="120" y="215" width="110" height="60" rx="6" fill="#e8ecf4"/>
  <rect x="120" y="285" width="70" height="10" rx="3" fill="#333"/>
  <rect x="120" y="302" width="40" height="14" rx="3" fill="#0a45c3"/>
  
  <rect x="255" y="205" width="130" height="120" rx="12" fill="#fafafa"/>
  <rect x="265" y="215" width="110" height="60" rx="6" fill="#e8ecf4"/>
  <rect x="265" y="285" width="80" height="10" rx="3" fill="#333"/>
  <rect x="265" y="302" width="50" height="14" rx="3" fill="#0a45c3"/>
  
  <rect x="400" y="205" width="130" height="120" rx="12" fill="#fafafa"/>
  <rect x="410" y="215" width="110" height="60" rx="6" fill="#e8ecf4"/>
  <rect x="410" y="285" width="60" height="10" rx="3" fill="#333"/>
  <rect x="410" y="302" width="45" height="14" rx="3" fill="#0a45c3"/>
  
  <rect x="545" y="205" width="130" height="120" rx="12" fill="#fafafa"/>
  <rect x="555" y="215" width="110" height="60" rx="6" fill="#e8ecf4"/>
  <rect x="555" y="285" width="75" height="10" rx="3" fill="#333"/>
  <rect x="555" y="302" width="35" height="14" rx="3" fill="#10b981"/>
  
  <!-- Gear icon in products -->
  <g transform="translate(155, 230)">
    <circle cx="20" cy="20" r="16" stroke="#0a45c3" stroke-width="3" fill="none" stroke-opacity="0.4"/>
    <circle cx="20" cy="20" r="8" stroke="#0a45c3" stroke-width="3" fill="none" stroke-opacity="0.4"/>
  </g>
  
  <g transform="translate(300, 230)">
    <rect x="5" y="10" width="30" height="20" rx="2" stroke="#666" stroke-width="2" fill="none"/>
    <line x1="10" y1="15" x2="10" y2="25" stroke="#666" stroke-width="2"/>
    <line x1="20" y1="15" x2="20" y2="25" stroke="#666" stroke-width="2"/>
    <line x1="30" y1="15" x2="30" y2="25" stroke="#666" stroke-width="2"/>
  </g>
  
  <g transform="translate(445, 230)">
    <circle cx="20" cy="20" r="15" stroke="#666" stroke-width="2" fill="none"/>
    <circle cx="20" cy="20" r="6" fill="#666"/>
  </g>
  
  <g transform="translate(590, 230)">
    <rect x="5" y="8" width="30" height="24" rx="3" stroke="#666" stroke-width="2" fill="none"/>
    <line x1="12" y1="8" x2="12" y2="32" stroke="#666" stroke-width="2"/>
    <line x1="28" y1="8" x2="28" y2="32" stroke="#666" stroke-width="2"/>
  </g>
  
  <defs>
    <linearGradient id="gradient3" x1="0" y1="0" x2="800" y2="400" gradientUnits="userSpaceOnUse">
      <stop stop-color="#fef3c7"/>
      <stop offset="1" stop-color="#fde68a"/>
    </linearGradient>
  </defs>
</svg>

