<svg width="800" height="400" viewBox="0 0 800 400" fill="none" xmlns="http://www.w3.org/2000/svg">
  <rect width="800" height="400" fill="url(#gradient2)"/>
  
  <!-- Phone mockup -->
  <rect x="320" y="40" width="160" height="320" rx="24" fill="#1a1a1a"/>
  <rect x="328" y="52" width="144" height="296" rx="18" fill="white"/>
  
  <!-- Status bar -->
  <rect x="340" y="62" width="40" height="8" rx="3" fill="#333"/>
  <circle cx="448" cy="66" r="4" fill="#10b981"/>
  
  <!-- Header -->
  <rect x="340" y="85" width="80" height="14" rx="4" fill="#333"/>
  <circle cx="450" cy="92" r="12" fill="#f0f4ff"/>
  
  <!-- Stats cards -->
  <rect x="340" y="115" width="52" height="50" rx="10" fill="#f0f4ff"/>
  <rect x="400" y="115" width="52" height="50" rx="10" fill="#f0fff4"/>
  
  <rect x="350" y="130" width="24" height="16" rx="4" fill="#0a45c3"/>
  <rect x="350" y="152" width="32" height="6" rx="2" fill="#0a45c3" fill-opacity="0.3"/>
  
  <rect x="410" y="130" width="20" height="16" rx="4" fill="#10b981"/>
  <rect x="410" y="152" width="32" height="6" rx="2" fill="#10b981" fill-opacity="0.3"/>
  
  <!-- Workout list -->
  <rect x="340" y="180" width="120" height="12" rx="3" fill="#333"/>
  
  <rect x="340" y="204" width="112" height="44" rx="10" fill="#fafafa"/>
  <rect x="352" y="214" width="8" height="24" rx="2" fill="#0a45c3"/>
  <rect x="368" y="216" width="60" height="8" rx="2" fill="#333"/>
  <rect x="368" y="230" width="40" height="6" rx="2" fill="#999"/>
  
  <rect x="340" y="256" width="112" height="44" rx="10" fill="#fafafa"/>
  <rect x="352" y="266" width="8" height="24" rx="2" fill="#10b981"/>
  <rect x="368" y="268" width="50" height="8" rx="2" fill="#333"/>
  <rect x="368" y="282" width="35" height="6" rx="2" fill="#999"/>
  
  <!-- Bottom nav -->
  <rect x="340" y="310" width="120" height="28" rx="8" fill="#f5f5f5"/>
  <circle cx="365" cy="324" r="8" fill="#0a45c3"/>
  <circle cx="400" cy="324" r="8" fill="#ddd"/>
  <circle cx="435" cy="324" r="8" fill="#ddd"/>
  
  <!-- Dumbbell decoration left -->
  <g transform="translate(150, 160)">
    <rect x="0" y="20" width="80" height="16" rx="8" fill="#0a45c3" fill-opacity="0.15"/>
    <rect x="-8" y="10" width="24" height="36" rx="6" fill="#0a45c3" fill-opacity="0.25"/>
    <rect x="64" y="10" width="24" height="36" rx="6" fill="#0a45c3" fill-opacity="0.25"/>
  </g>
  
  <!-- Heart rate decoration right -->
  <g transform="translate(530, 150)">
    <circle cx="60" cy="50" r="40" fill="#fff" fill-opacity="0.5"/>
    <path d="M40 50 L50 50 L55 35 L65 65 L70 50 L80 50" stroke="#ef4444" stroke-width="3" fill="none" stroke-linecap="round" stroke-linejoin="round"/>
  </g>
  
  <defs>
    <linearGradient id="gradient2" x1="0" y1="0" x2="800" y2="400" gradientUnits="userSpaceOnUse">
      <stop stop-color="#ecfdf5"/>
      <stop offset="1" stop-color="#d1fae5"/>
    </linearGradient>
  </defs>
</svg>

