<svg width="800" height="400" viewBox="0 0 800 400" fill="none" xmlns="http://www.w3.org/2000/svg">
  <rect width="800" height="400" fill="url(#gradient1)"/>
  
  <!-- Dashboard mockup -->
  <rect x="100" y="60" width="600" height="280" rx="16" fill="white" fill-opacity="0.95"/>
  
  <!-- Sidebar -->
  <rect x="100" y="60" width="140" height="280" rx="16" fill="#f8f9fb"/>
  <rect x="116" y="85" width="108" height="12" rx="4" fill="#e0e5ec"/>
  <rect x="116" y="115" width="80" height="8" rx="3" fill="#0a45c3" fill-opacity="0.3"/>
  <rect x="116" y="135" width="90" height="8" rx="3" fill="#d0d5dc"/>
  <rect x="116" y="155" width="70" height="8" rx="3" fill="#d0d5dc"/>
  <rect x="116" y="175" width="85" height="8" rx="3" fill="#d0d5dc"/>
  
  <!-- Main content -->
  <rect x="260" y="85" width="160" height="80" rx="12" fill="#f0f4ff"/>
  <rect x="276" y="105" width="60" height="20" rx="4" fill="#0a45c3"/>
  <rect x="276" y="135" width="100" height="10" rx="3" fill="#0a45c3" fill-opacity="0.3"/>
  
  <rect x="440" y="85" width="160" height="80" rx="12" fill="#f0fff4"/>
  <rect x="456" y="105" width="50" height="20" rx="4" fill="#10b981"/>
  <rect x="456" y="135" width="80" height="10" rx="3" fill="#10b981" fill-opacity="0.3"/>
  
  <!-- Chart area -->
  <rect x="260" y="185" width="340" height="130" rx="12" fill="#fafafa"/>
  
  <!-- Chart bars -->
  <rect x="290" y="260" width="30" height="40" rx="4" fill="#0a45c3" fill-opacity="0.8"/>
  <rect x="340" y="240" width="30" height="60" rx="4" fill="#0a45c3" fill-opacity="0.8"/>
  <rect x="390" y="220" width="30" height="80" rx="4" fill="#0a45c3"/>
  <rect x="440" y="235" width="30" height="65" rx="4" fill="#0a45c3" fill-opacity="0.8"/>
  <rect x="490" y="210" width="30" height="90" rx="4" fill="#0a45c3"/>
  <rect x="540" y="200" width="30" height="100" rx="4" fill="#10b981"/>
  
  <!-- Truck icon -->
  <g transform="translate(620, 140)">
    <rect x="10" y="30" width="50" height="30" rx="6" fill="#0a45c3"/>
    <rect x="0" y="40" width="20" height="20" rx="4" fill="#0a45c3"/>
    <circle cx="20" cy="65" r="8" fill="#333"/>
    <circle cx="50" cy="65" r="8" fill="#333"/>
    <circle cx="20" cy="65" r="4" fill="#666"/>
    <circle cx="50" cy="65" r="4" fill="#666"/>
  </g>
  
  <defs>
    <linearGradient id="gradient1" x1="0" y1="0" x2="800" y2="400" gradientUnits="userSpaceOnUse">
      <stop stop-color="#f0f4ff"/>
      <stop offset="1" stop-color="#e0e8ff"/>
    </linearGradient>
  </defs>
</svg>

